PathFileType	4	(X/Y/Z)	 s07c0103.trc
DataRate	CameraRate	NumFrames	NumMarkers	Units	OrigDataRate	OrigDataStartFrame	OrigNumFrames
200	200	6	47	mm	200	1	2000
Frame#	Time	racr			lacr			c7			jug			rlel			rdr			llel			ldr			s2			lic			ric			lasi			rasi			rpsi			lpsi			rgt			lgt			rth1			rth2			rth3			rth4			rlfc			rmfc			rsh1			rsh2			rsh3			rsh4			rcal			rtoe			rmt5			lth1			lth2			lth4			lth3			llfc			lmfc			lsh1			lsh2			lsh3			lsh4			llmal			lcal			ltoe			lmt5			SBIKE			LBIKE			RBIKE			
		X1	Y1	Z1	X2	Y2	Z2	X3	Y3	Z3	X4	Y4	Z4	X5	Y5	Z5	X6	Y6	Z6	X7	Y7	Z7	X8	Y8	Z8	X9	Y9	Z9	X10	Y10	Z10	X11	Y11	Z11	X12	Y12	Z12	X13	Y13	Z13	X14	Y14	Z14	X15	Y15	Z15	X16	Y16	Z16	X17	Y17	Z17	X18	Y18	Z18	X19	Y19	Z19	X20	Y20	Z20	X21	Y21	Z21	X22	Y22	Z22	X23	Y23	Z23	X24	Y24	Z24	X25	Y25	Z25	X26	Y26	Z26	X27	Y27	Z27	X28	Y28	Z28	X29	Y29	Z29	X30	Y30	Z30	X31	Y31	Z31	X32	Y32	Z32	X33	Y33	Z33	X34	Y34	Z34	X35	Y35	Z35	X36	Y36	Z36	X37	Y37	Z37	X38	Y38	Z38	X39	Y39	Z39	X40	Y40	Z40	X41	Y41	Z41	X42	Y42	Z42	X43	Y43	Z43	X44	Y44	Z44	X45	Y45	Z45	X46	Y46	Z46	X47	Y47	Z47	
1	0.0050	452.194305	1408.223129	-77.830551	444.434200	1393.781632	-369.013503	428.956023	1441.319488	-225.079752	386.064389	1303.115728	-220.398180	494.681425	1083.692241	42.931632	719.433941	912.270863	-55.321017	488.217635	1078.485338	-485.960305	725.246599	914.604795	-399.100823	-142.873652	1204.231044	-236.824206	27.164514	1251.510113	-375.841419	28.083584	1237.065912	-82.743821	54.556651	1170.992765	-351.736213	37.676870	1181.746965	-101.875866	-115.144147	1241.720017	-184.630598	-99.213941	1252.543591	-291.025392	-35.336920	1120.649458	-39.511719	-38.818936	1098.892015	-410.150994	108.243561	1060.969992	-38.597965	192.606119	1042.736976	-51.563353	260.135012	990.355784	-49.561819	204.883670	1073.000332	-68.972138	375.212061	911.140528	-84.652037	369.941654	895.456931	-189.685277	329.566556	774.933113	-61.060931	320.381503	687.665558	-80.506806	273.340876	615.058138	-75.680110	336.391838	686.706123	-117.140156	152.258387	450.934440	-104.822146	440.859961	418.673777	-119.827322	362.885007	388.338087	-49.068264	27.924091	995.837891	-416.461589	102.283629	948.069609	-421.098535	129.220459	971.768405	-414.190912	143.502932	869.189007	-418.405097	248.481237	720.331858	-385.898397	239.244286	704.651786	-288.734909	155.612973	602.543182	-407.013750	118.293498	527.614938	-386.441997	46.484064	473.654492	-395.137323	122.255514	529.145780	-344.649064	-45.891135	378.513679	-392.953603	-126.655554	367.009204	-359.800502	135.543056	244.805991	-355.287320	52.386967	251.511377	-419.689237	-258.815086	967.609767	-232.145565	-75.666549	83.551064	-437.298642	-81.999802	79.197498	-39.727903	
2	0.0100	452.174476	1408.190896	-77.807242	444.436968	1393.743313	-369.012307	428.954280	1441.281712	-225.087840	386.044405	1303.096284	-220.368674	494.644355	1083.648286	42.915200	719.400785	912.280001	-55.340498	488.202949	1078.471437	-485.995296	725.242327	914.609939	-399.099578	-142.859339	1204.236514	-236.858483	27.100617	1251.454760	-375.966276	28.068515	1237.069714	-82.733503	54.572716	1170.966302	-351.761704	37.680229	1181.715878	-101.870741	-115.192360	1241.764144	-184.604818	-99.220117	1252.561424	-291.049402	-35.333807	1120.635917	-39.510890	-38.836046	1098.906628	-410.182385	108.255467	1060.968555	-38.587248	192.607462	1042.750148	-51.515531	260.099587	990.411161	-49.506671	204.889843	1073.021843	-68.934946	375.217456	911.169281	-84.556050	369.962082	895.490862	-189.629362	329.597397	774.935333	-61.020536	320.428913	687.662739	-80.476165	273.370916	615.076900	-75.639673	336.429300	686.739044	-117.080302	152.319174	450.960798	-104.830847	440.883090	418.626043	-119.826323	362.915488	388.294413	-49.088459	27.902115	995.823748	-416.467070	102.140593	948.368392	-421.164033	129.044557	972.192303	-414.437682	143.477368	869.140785	-418.426020	248.443140	720.315265	-385.916461	239.218993	704.636882	-288.761770	155.553287	602.546780	-407.029033	118.234720	527.617862	-386.450353	46.434289	473.577466	-395.097425	122.186591	529.124500	-344.655361	-45.981843	378.545660	-392.934925	-126.720039	366.992936	-359.802900	135.506236	244.892870	-355.304393	52.356688	251.561050	-419.674922	-258.798788	967.603523	-232.152955	-75.684179	83.506409	-437.294915	-82.021535	79.211806	-39.729838	
3	0.0150	452.156670	1408.161957	-77.809990	444.438623	1393.712619	-369.011157	428.962366	1441.238205	-225.112427	386.008482	1303.073230	-220.363322	494.591215	1083.581630	42.902744	719.372074	912.275119	-55.349280	488.199157	1078.452376	-486.009699	725.252821	914.622131	-399.104328	-142.859815	1204.232222	-236.855375	27.055048	1251.429124	-375.964328	28.049935	1237.093845	-82.749472	54.548095	1170.984834	-351.771507	37.682691	1181.733093	-101.881245	-115.160536	1241.725480	-184.635655	-99.234139	1252.550680	-291.046457	-35.335581	1120.643548	-39.518130	-38.865375	1098.904483	-410.184151	108.228588	1060.974678	-38.559376	192.579795	1042.783915	-51.467372	260.092530	990.419972	-49.452343	204.891104	1073.037391	-68.890593	375.214238	911.190905	-84.458933	370.163434	895.100892	-189.712862	329.616296	774.945089	-60.963550	320.445049	687.691183	-80.433213	273.416957	615.080887	-75.624058	336.449557	686.756388	-117.044389	152.333947	451.005717	-104.820237	440.907501	418.590455	-119.827980	362.916612	388.257790	-49.086029	27.877295	995.820352	-416.474757	102.107748	948.336269	-421.169408	129.010887	972.149704	-414.428310	143.421649	869.125655	-418.447867	248.413712	720.299249	-385.918884	239.191227	704.616441	-288.791539	155.507422	602.530798	-407.045391	118.183974	527.612085	-386.451036	46.377860	473.582027	-395.088410	122.142273	529.120493	-344.677254	-46.032125	378.564407	-392.918939	-126.773579	366.955539	-359.789252	135.489554	244.948294	-355.308346	52.323184	251.589135	-419.684581	-258.811888	967.601152	-232.151233	-75.683837	83.528274	-437.317668	-81.978923	79.199467	-39.739478	
4	0.0200	452.103306	1408.551246	-77.607005	444.241523	1391.617981	-361.516999	428.820379	1440.888039	-224.925048	386.008387	1303.089225	-220.370027	494.307990	1084.157926	43.428905	719.387109	912.281920	-55.337068	488.467136	1078.631378	-486.621550	725.237873	914.640376	-399.123620	-142.881611	1204.230124	-236.846981	21.197833	1245.804715	-361.035956	27.781659	1237.368581	-82.802093	54.548238	1170.994411	-351.773467	37.704199	1181.737596	-101.893391	-114.662561	1241.679587	-184.872138	-99.112232	1252.805994	-291.500207	-35.336374	1120.650300	-39.505307	-38.890090	1098.914978	-410.199121	107.418159	1059.482006	-39.035909	192.575442	1042.794550	-51.429270	260.076472	990.439254	-49.395659	204.879465	1072.463132	-69.540674	375.207487	911.203682	-84.363279	371.617026	893.752435	-184.628296	329.626713	774.941419	-60.913286	320.283231	687.588968	-80.316887	273.464612	614.959421	-75.567673	336.599938	686.737995	-116.966082	152.360889	451.021986	-104.830368	440.690322	418.965423	-119.688592	363.164964	387.874851	-49.123268	27.835005	995.823174	-416.488745	102.072599	948.330852	-421.175254	128.384445	969.487336	-407.792163	143.383629	869.098320	-418.469048	248.381882	720.285457	-385.930303	239.149907	704.615648	-288.807861	155.441214	602.525978	-407.054461	118.194527	527.494209	-386.512660	46.017810	474.081925	-395.137908	122.751316	529.017591	-344.569727	-46.081087	378.557920	-392.902294	-126.770776	367.210011	-359.998004	135.462772	245.093201	-355.478397	52.300272	251.606985	-419.689052	-258.914523	967.642153	-232.643457	-75.686535	83.532723	-437.326136	-81.983118	79.218791	-39.735497	
5	0.0250	452.142827	1408.383730	-77.579854	439.504000	1388.515779	-355.527926	428.980506	1440.848605	-225.130037	385.904234	1303.194802	-220.335946	494.183055	1083.988740	43.223868	719.226744	912.269865	-55.439888	488.732319	1077.937449	-486.622939	725.092266	914.441180	-399.042982	-142.824838	1204.119312	-236.782740	21.223949	1245.552322	-361.155793	27.781949	1237.328039	-82.772125	54.644809	1170.386155	-351.946443	37.699308	1181.778674	-101.901542	-114.859579	1241.365609	-184.783367	-99.172876	1252.781486	-291.472441	-35.128296	1120.338303	-39.529522	-38.679834	1098.361745	-409.321903	107.458153	1059.176020	-39.018218	192.572430	1042.794707	-51.419473	260.013531	990.362732	-49.318733	204.850751	1072.404813	-69.438464	375.134108	910.945191	-84.225614	373.598570	893.633650	-184.705315	329.867000	774.760373	-60.815117	320.326781	687.031542	-80.465543	273.824560	614.745341	-75.504329	336.546580	686.245353	-117.104290	152.425533	450.971202	-104.902009	440.677896	418.980793	-119.661932	363.794228	387.202548	-49.361091	31.411843	993.323289	-411.099062	102.053678	948.174312	-421.160556	132.674518	969.632527	-409.070790	143.824954	868.707985	-417.975395	251.379001	718.494695	-382.467917	239.387800	704.363650	-288.889354	155.673388	602.269786	-406.927742	118.410121	527.085397	-386.469943	46.435352	473.722723	-394.073594	123.910147	528.474143	-344.449788	-45.942393	378.419582	-392.820124	-126.663420	367.204810	-360.063367	139.297962	240.635346	-349.491223	56.040330	246.876726	-413.563649	-258.853164	967.538427	-232.776641	-75.918099	83.830223	-437.202965	-81.640308	78.914205	-39.512580	
6	0.0300	452.129199	1408.319761	-77.597744	438.908585	1388.290194	-355.160230	428.996745	1441.353229	-225.070768	385.909082	1303.226237	-220.311862	494.127855	1083.915948	43.144384	719.419856	912.234339	-55.350443	488.499876	1078.834366	-486.840355	725.009479	914.365079	-398.996965	-142.720686	1204.198663	-236.992870	21.188043	1245.364392	-361.233485	27.766137	1237.378794	-82.781361	58.179550	1168.933238	-344.861909	37.706165	1181.780713	-101.905689	-114.830981	1241.579226	-184.913054	-99.260144	1252.839127	-291.321084	-35.457529	1120.953768	-39.374109	-37.064796	1096.187612	-402.550658	107.336316	1059.772623	-38.929004	192.554437	1042.811418	-51.352798	260.050816	990.485074	-49.254728	204.868479	1072.514936	-69.482120	382.080796	909.998737	-78.955387	370.441767	890.921691	-178.350878	329.499405	775.196603	-60.707100	328.004456	686.506547	-74.520630	273.187995	615.263962	-75.375533	336.398230	686.859968	-116.782604	152.410129	451.019260	-104.812844	440.624973	419.015108	-119.732395	363.734472	387.532616	-49.670657	30.722891	992.464145	-408.686444	101.999768	948.308953	-421.172143	128.689898	967.216328	-403.592962	145.369879	865.981436	-411.034480	251.530448	716.448883	-378.428310	238.871785	704.872764	-288.714748	155.365013	602.615469	-407.174959	118.050660	527.636140	-386.569525	46.446780	473.623255	-394.309673	127.800946	527.766949	-339.514224	-43.271538	373.022482	-384.444708	-126.834701	367.005334	-359.847613	138.533990	239.515601	-347.143629	51.519026	243.502419	-408.154943	-258.861891	967.637455	-232.661828	-76.001618	83.470057	-437.348091	-82.187610	79.512838	-39.775074	
